<?xml version="1.0" standalone="no"?><!DOCTYPE svg PUBLIC "-//W3C//DTD SVG 1.1//EN" "http://www.w3.org/Graphics/SVG/1.1/DTD/svg11.dtd"><svg t="1630667019934" class="icon" viewBox="0 0 1024 1024" version="1.1" xmlns="http://www.w3.org/2000/svg" p-id="2313" xmlns:xlink="http://www.w3.org/1999/xlink" width="32" height="32"><defs><style type="text/css"></style></defs><path d="M384 928a96 96 0 1 1-192 0 96 96 0 0 1 192 0zM1024 928a96 96 0 1 1-192 0 96 96 0 0 1 192 0zM1024 512V128H256a64 64 0 0 0-64-64H0v64h128l48.064 412.064A128 128 0 0 0 256 768h768v-64H256a64 64 0 0 1-64-64v-0.64L1024 512z" p-id="2314" fill="#FF534D"></path></svg>