<?xml version="1.0" standalone="no"?><!DOCTYPE svg PUBLIC "-//W3C//DTD SVG 1.1//EN" "http://www.w3.org/Graphics/SVG/1.1/DTD/svg11.dtd"><svg t="1629820469326" class="icon" viewBox="0 0 1024 1024" version="1.1" xmlns="http://www.w3.org/2000/svg" p-id="4053" xmlns:xlink="http://www.w3.org/1999/xlink" width="32" height="32"><defs><style type="text/css"></style></defs><path d="M426.666667 448v-192a42.666667 42.666667 0 1 0-85.333334 0v192a42.666667 42.666667 0 1 0 85.333334 0zM682.666667 448v-192a42.666667 42.666667 0 1 0-85.333334 0v192a42.666667 42.666667 0 1 0 85.333334 0z" p-id="4054" fill="#d4237a"></path><path d="M1024 512C1024 229.226667 794.773333 0 512 0S0 229.226667 0 512s229.226667 512 512 512a42.666667 42.666667 0 1 0 0-85.333333 426.666667 426.666667 0 1 1 323.2-149.333334 128 128 0 1 0 51.2 70.826667A510.08 510.08 0 0 0 1024 512zM763.52 938.666667a42.666667 42.666667 0 1 1 0-85.333334 42.666667 42.666667 0 0 1 0 85.333334z" p-id="4055" fill="#d4237a"></path><path d="M327.68 746.666667a298.666667 298.666667 0 0 0 473.173333-160 42.666667 42.666667 0 0 0-82.56-21.333334 213.333333 213.333333 0 0 1-74.88 114.56 213.333333 213.333333 0 0 1-262.826666 0 213.333333 213.333333 0 0 1-74.88-114.56 42.666667 42.666667 0 1 0-82.56 21.333334 298.666667 298.666667 0 0 0 104.533333 160z" p-id="4056" fill="#d4237a"></path></svg>