<?xml version="1.0" standalone="no"?><!DOCTYPE svg PUBLIC "-//W3C//DTD SVG 1.1//EN" "http://www.w3.org/Graphics/SVG/1.1/DTD/svg11.dtd"><svg t="1629458417979" class="icon" viewBox="0 0 1024 1024" version="1.1" xmlns="http://www.w3.org/2000/svg" p-id="2936" xmlns:xlink="http://www.w3.org/1999/xlink" width="32px" height="32px"><defs><style type="text/css"></style></defs><path d="M256 288.170667V512c0 118.698667 82.56 216.618667 256.170667 294.741333C685.525333 728.661333 768 630.698667 768 512V288.170667L512 215.04 256 288.170667z m256-161.877334l341.333333 97.536V512c0 161.962667-111.232 289.152-324.352 380.544l-16.810666 7.210667-16.810667-7.210667C281.984 801.152 170.666667 674.005333 170.666667 512V223.829333l341.333333-97.536z m138.88 229.034667a42.666667 42.666667 0 0 1 63.189333 57.386667l-213.12 234.666666a42.666667 42.666667 0 0 1-58.24 4.650667l-106.666666-85.333333a42.666667 42.666667 0 0 1 53.333333-66.645334l59.733333 47.786667a21.333333 21.333333 0 0 0 29.098667-2.304l172.672-190.208z" p-id="2937" fill="#1afa29"></path></svg>

