<?xml version="1.0" standalone="no"?><!DOCTYPE svg PUBLIC "-//W3C//DTD SVG 1.1//EN" "http://www.w3.org/Graphics/SVG/1.1/DTD/svg11.dtd"><svg class="icon" width="20px" height="20px" viewBox="0 0 1024 1024" version="1.1" xmlns="http://www.w3.org/2000/svg"><path d="M511.5 511.95m-450 0a450 450 0 1 0 900 0 450 450 0 1 0-900 0Z" fill="#FF6315" /><path d="M181.95 476.36c64.17-86.67 113.96-184.58 149.38-293.75l45.63 16.25c-20.63 57.5-43.33 110.63-68.13 159.38v440.62h-45V438.23c-20.42 32.71-41.88 62.92-64.38 90.62-5-16.66-10.83-34.16-17.5-52.49zM405.7 235.11c119.58 0 243.54-8.75 371.88-26.25l17.5 46.88c-57.5 5.42-113.23 9.9-167.19 13.44 1.04 58.33 3.02 111.56 5.94 159.69H803.2v45H637.26c12.29 144.79 45.31 231.25 99.06 259.37 11.67 5 19.17 0.63 22.5-13.13 3.75-21.25 7.29-52.5 10.63-93.75 16.25 7.5 31.25 13.13 45 16.88-4.17 39.17-8.75 71.46-13.75 96.88-7.08 32.5-23.33 48.75-48.75 48.75-30.83 0-60.21-18.33-88.13-55-39.79-54.79-64.27-141.46-73.44-260H453.2v221.25c45-25.83 83.75-48.13 116.25-66.88 2.5 19.17 5.63 35.21 9.38 48.13-53.33 30.42-95.42 55.42-126.25 75-12.08 7.92-23.96 17.29-35.63 28.13l-32.5-41.25c14.17-12.08 21.25-30 21.25-53.75V235.11z m174.06 36.87c-43.33 2.5-85.52 4.38-126.56 5.63v151.25h134.38c-2.3-40.63-4.9-92.92-7.82-156.88z m-48.43 455.63l32.5-25.63c23.33 22.08 46.25 45.63 68.75 70.63l-36.25 29.38c-19.59-24.59-41.25-49.38-65-74.38z" fill="#FFFFFF" /></svg>