<?xml version="1.0" standalone="no"?><!DOCTYPE svg PUBLIC "-//W3C//DTD SVG 1.1//EN" "http://www.w3.org/Graphics/SVG/1.1/DTD/svg11.dtd"><svg t="1630001476250" class="icon" viewBox="0 0 1024 1024" version="1.1" xmlns="http://www.w3.org/2000/svg" p-id="3507" xmlns:xlink="http://www.w3.org/1999/xlink" width="32" height="32"><defs><style type="text/css"></style></defs><path d="M238.933 420.978c-50.067 0-91.022 40.956-91.022 91.022s40.956 91.022 91.022 91.022 91.022-40.956 91.022-91.022-40.956-91.022-91.022-91.022z m546.134 0c-50.067 0-91.022 40.956-91.022 91.022s40.956 91.022 91.022 91.022 91.022-40.956 91.022-91.022-40.956-91.022-91.022-91.022z m-273.067 0c-50.067 0-91.022 40.956-91.022 91.022s40.956 91.022 91.022 91.022 91.022-40.956 91.022-91.022-40.956-91.022-91.022-91.022z" p-id="3508" fill="#515151"></path></svg>