<?xml version="1.0" standalone="no"?><!DOCTYPE svg PUBLIC "-//W3C//DTD SVG 1.1//EN" "http://www.w3.org/Graphics/SVG/1.1/DTD/svg11.dtd"><svg t="1630157100823" class="icon" viewBox="0 0 1024 1024" version="1.1" xmlns="http://www.w3.org/2000/svg" p-id="2785" xmlns:xlink="http://www.w3.org/1999/xlink" width="32" height="32"><defs><style type="text/css"></style></defs><path d="M19 0v1024" fill="" p-id="2786"></path><path d="M35 0v1024" fill="" p-id="2787"></path><path d="M51 0v1024" fill="" p-id="2788"></path><path d="M67 0v1024" fill="" p-id="2789"></path><path d="M83 0v1024" fill="" p-id="2790"></path><path d="M99 0v1024" fill="" p-id="2791"></path><path d="M115 0v1024" fill="" p-id="2792"></path><path d="M131 0v1024" fill="" p-id="2793"></path><path d="M147 0v1024" fill="" p-id="2794"></path><path d="M163 0v1024" fill="" p-id="2795"></path><path d="M179 0v1024" fill="" p-id="2796"></path><path d="M195 0v1024" fill="" p-id="2797"></path><path d="M211 0v1024" fill="" p-id="2798"></path><path d="M227 0v1024" fill="" p-id="2799"></path><path d="M243 0v1024" fill="" p-id="2800"></path><path d="M259 0v1024" fill="" p-id="2801"></path><path d="M275 0v1024" fill="" p-id="2802"></path><path d="M291 0v1024" fill="" p-id="2803"></path><path d="M307 0v1024" fill="" p-id="2804"></path><path d="M323 0v1024" fill="" p-id="2805"></path><path d="M339 0v1024" fill="" p-id="2806"></path><path d="M355 0v1024" fill="" p-id="2807"></path><path d="M371 0v1024" fill="" p-id="2808"></path><path d="M387 0v1024" fill="" p-id="2809"></path><path d="M403 0v1024" fill="" p-id="2810"></path><path d="M419 0v1024" fill="" p-id="2811"></path><path d="M435 0v1024" fill="" p-id="2812"></path><path d="M451 0v1024" fill="" p-id="2813"></path><path d="M467 0v1024" fill="" p-id="2814"></path><path d="M483 0v1024" fill="" p-id="2815"></path><path d="M499 0v1024" fill="" p-id="2816"></path><path d="M515 0v1024" fill="" p-id="2817"></path><path d="M531 0v1024" fill="" p-id="2818"></path><path d="M547 0v1024" fill="" p-id="2819"></path><path d="M563 0v1024" fill="" p-id="2820"></path><path d="M579 0v1024" fill="" p-id="2821"></path><path d="M595 0v1024" fill="" p-id="2822"></path><path d="M611 0v1024" fill="" p-id="2823"></path><path d="M627 0v1024" fill="" p-id="2824"></path><path d="M643 0v1024" fill="" p-id="2825"></path><path d="M659 0v1024" fill="" p-id="2826"></path><path d="M675 0v1024" fill="" p-id="2827"></path><path d="M691 0v1024" fill="" p-id="2828"></path><path d="M707 0v1024" fill="" p-id="2829"></path><path d="M723 0v1024" fill="" p-id="2830"></path><path d="M739 0v1024" fill="" p-id="2831"></path><path d="M755 0v1024" fill="" p-id="2832"></path><path d="M771 0v1024" fill="" p-id="2833"></path><path d="M787 0v1024" fill="" p-id="2834"></path><path d="M803 0v1024" fill="" p-id="2835"></path><path d="M819 0v1024" fill="" p-id="2836"></path><path d="M835 0v1024" fill="" p-id="2837"></path><path d="M851 0v1024" fill="" p-id="2838"></path><path d="M867 0v1024" fill="" p-id="2839"></path><path d="M883 0v1024" fill="" p-id="2840"></path><path d="M899 0v1024" fill="" p-id="2841"></path><path d="M915 0v1024" fill="" p-id="2842"></path><path d="M931 0v1024" fill="" p-id="2843"></path><path d="M947 0v1024" fill="" p-id="2844"></path><path d="M963 0v1024" fill="" p-id="2845"></path><path d="M979 0v1024" fill="" p-id="2846"></path><path d="M995 0v1024" fill="" p-id="2847"></path><path d="M1011 0v1024M3 16h1018" fill="" p-id="2848"></path><path d="M3 32h1018" fill="" p-id="2849"></path><path d="M3 48h1018" fill="" p-id="2850"></path><path d="M3 64h1018" fill="" p-id="2851"></path><path d="M3 80h1018" fill="" p-id="2852"></path><path d="M3 96h1018" fill="" p-id="2853"></path><path d="M3 112h1018" fill="" p-id="2854"></path><path d="M3 128h1018" fill="" p-id="2855"></path><path d="M3 144h1018" fill="" p-id="2856"></path><path d="M3 160h1018" fill="" p-id="2857"></path><path d="M3 176h1018" fill="" p-id="2858"></path><path d="M3 192h1018" fill="" p-id="2859"></path><path d="M3 208h1018" fill="" p-id="2860"></path><path d="M3 224h1018" fill="" p-id="2861"></path><path d="M3 240h1018" fill="" p-id="2862"></path><path d="M3 256h1018" fill="" p-id="2863"></path><path d="M3 272h1018" fill="" p-id="2864"></path><path d="M3 288h1018" fill="" p-id="2865"></path><path d="M3 304h1018" fill="" p-id="2866"></path><path d="M3 320h1018" fill="" p-id="2867"></path><path d="M3 336h1018" fill="" p-id="2868"></path><path d="M3 352h1018" fill="" p-id="2869"></path><path d="M3 368h1018" fill="" p-id="2870"></path><path d="M3 384h1018" fill="" p-id="2871"></path><path d="M3 400h1018" fill="" p-id="2872"></path><path d="M3 416h1018" fill="" p-id="2873"></path><path d="M3 432h1018" fill="" p-id="2874"></path><path d="M3 448h1018" fill="" p-id="2875"></path><path d="M3 464h1018" fill="" p-id="2876"></path><path d="M3 480h1018" fill="" p-id="2877"></path><path d="M3 496h1018" fill="" p-id="2878"></path><path d="M3 512h1018" fill="" p-id="2879"></path><path d="M3 528h1018" fill="" p-id="2880"></path><path d="M3 544h1018" fill="" p-id="2881"></path><path d="M3 560h1018" fill="" p-id="2882"></path><path d="M3 576h1018" fill="" p-id="2883"></path><path d="M3 592h1018" fill="" p-id="2884"></path><path d="M3 608h1018" fill="" p-id="2885"></path><path d="M3 624h1018" fill="" p-id="2886"></path><path d="M3 640h1018" fill="" p-id="2887"></path><path d="M3 656h1018" fill="" p-id="2888"></path><path d="M3 672h1018" fill="" p-id="2889"></path><path d="M3 688h1018" fill="" p-id="2890"></path><path d="M3 704h1018" fill="" p-id="2891"></path><path d="M3 720h1018" fill="" p-id="2892"></path><path d="M3 736h1018" fill="" p-id="2893"></path><path d="M3 752h1018" fill="" p-id="2894"></path><path d="M3 768h1018" fill="" p-id="2895"></path><path d="M3 784h1018" fill="" p-id="2896"></path><path d="M3 800h1018" fill="" p-id="2897"></path><path d="M3 816h1018" fill="" p-id="2898"></path><path d="M3 832h1018" fill="" p-id="2899"></path><path d="M3 848h1018" fill="" p-id="2900"></path><path d="M3 864h1018" fill="" p-id="2901"></path><path d="M3 880h1018" fill="" p-id="2902"></path><path d="M3 896h1018" fill="" p-id="2903"></path><path d="M3 912h1018" fill="" p-id="2904"></path><path d="M3 928h1018" fill="" p-id="2905"></path><path d="M3 944h1018" fill="" p-id="2906"></path><path d="M3 960h1018" fill="" p-id="2907"></path><path d="M3 976h1018" fill="" p-id="2908"></path><path d="M3 992h1018" fill="" p-id="2909"></path><path d="M3 1008h1018" fill="" p-id="2910"></path><path d="M691.142 770.799c-54.319 38.535-117.871 57.854-182.843 56.963a327.316 327.316 0 0 1-25.547-1.291c-3.445-0.327-6.891-0.898-10.352-1.339-6.637-0.891-13.286-1.789-19.744-3.055-4.003-0.767-7.916-1.807-11.824-2.723-6.333-1.506-12.642-3.027-18.823-4.89-2.977-0.932-5.884-2.001-8.829-3.007-7.134-2.423-14.235-4.92-21.153-7.854-1.565-0.637-3.069-1.383-4.635-2.093-8.066-3.599-16.07-7.371-23.776-11.613-0.377-0.195-0.69-0.361-1.068-0.558a315.818 315.818 0 0 1-71.034-53.884c-0.318-0.327-0.663-0.721-1.006-1.099a307.264 307.264 0 0 1-18.643-20.761c-1.235-1.536-2.437-3.188-3.685-4.771-42.685-54.073-68.43-122.505-68.43-196.959h72.408c1.87 0 3.679-1.001 4.629-2.766s0.793-3.825-0.239-5.388L154.832 318.866a5.256 5.256 0 0 0-8.784 0L24.33 503.711a5.259 5.259 0 1 0 4.391 8.154h72.422c0 87.527 26.949 168.651 72.734 235.728 0.559 0.935 0.964 1.929 1.578 2.862 4.741 6.858 10.005 13.195 15.093 19.679 1.896 2.455 3.673 4.979 5.643 7.386 7.495 9.21 15.454 17.86 23.639 26.318 0.783 0.845 1.504 1.67 2.275 2.423 27.473 27.851 58.544 51.324 92.338 70.084 0.871 0.53 1.747 1.072 2.709 1.567 9.737 5.292 19.742 10.078 29.884 14.609 2.53 1.098 4.997 2.33 7.569 3.418 8.67 3.641 17.573 6.828 26.559 9.868 4.244 1.461 8.457 2.951 12.757 4.286 7.839 2.349 15.859 4.319 23.955 6.257 5.357 1.262 10.68 2.635 16.145 3.685 2.274 0.467 4.407 1.176 6.638 1.521 7.611 1.367 15.286 2.137 22.916 3.069 2.753 0.331 5.462 0.798 8.216 1.099 13.709 1.369 27.366 2.274 41.015 2.274 83.524 0 165.011-25.862 234.918-75.439 22.269-15.844 27.703-46.927 12.101-69.51-15.648-22.631-46.401-28.093-68.673-12.248z m231.757-258.933c-0.044-87.252-26.827-168.218-72.388-235.156-0.663-1.143-1.114-2.301-1.863-3.369-5.655-8.183-11.843-15.815-17.996-23.458-0.708-0.932-1.366-1.911-2.119-2.828-41.693-51.217-94.039-90.777-153.366-116.639-1.643-0.721-3.25-1.521-4.902-2.244-9.466-3.94-19.173-7.432-28.92-10.725-3.523-1.175-6.966-2.467-10.564-3.536-8.501-2.604-17.121-4.723-25.822-6.756-4.797-1.131-9.599-2.361-14.46-3.324-2.405-0.467-4.678-1.187-7.057-1.625-6.487-1.131-13.001-1.625-19.5-2.483-4.512-0.572-8.906-1.28-13.454-1.747-10.924-1.026-21.758-1.459-32.591-1.652-1.989 0-3.896-0.318-5.866-0.318-0.36 0-0.689 0.107-1.053 0.137-83.42 0.062-164.727 25.565-234.543 75.079-22.327 15.796-27.759 46.916-12.142 69.512 15.587 22.601 46.388 28.075 68.671 12.233 53.927-38.233 116.833-57.58 181.355-56.996 9.284 0.062 18.419 0.527 27.443 1.386 2.783 0.318 5.537 0.739 8.307 1.081 7.421 0.92 14.778 1.988 22.028 3.431 3.208 0.634 6.365 1.459 9.494 2.182 7.117 1.625 14.22 3.367 21.173 5.494 2.197 0.708 4.36 1.503 6.56 2.224 7.93 2.634 15.74 5.462 23.413 8.697 0.78 0.328 1.578 0.739 2.33 1.053 45.953 20.01 86.259 50.814 117.709 89.36 0.195 0.223 0.39 0.528 0.572 0.752 44.265 54.561 70.914 124.295 70.941 200.237h-72.44c-1.87 0-3.679 1.001-4.629 2.766s-0.793 3.825 0.24 5.388L869.204 704.85a5.254 5.254 0 0 0 8.783-0.001l121.688-184.828c1.027-1.564 1.185-3.627 0.239-5.388s-2.759-2.766-4.629-2.766l-72.382 0.001z" fill="#D0DAF5" p-id="2911"></path></svg>