<?xml version="1.0" standalone="no"?><!DOCTYPE svg PUBLIC "-//W3C//DTD SVG 1.1//EN" "http://www.w3.org/Graphics/SVG/1.1/DTD/svg11.dtd"><svg class="icon" width="20px" height="20px" viewBox="0 0 1024 1024" version="1.1" xmlns="http://www.w3.org/2000/svg"><path fill="#1afa29" d="M512 0A512 512 0 1 1 0 512 512 512 0 0 1 512 0zM288 352h464v-48H560c-4.528-12.496-9.312-21.824-14.944-35.888l-75.472 11.2c3.904 8.592 6.032 14.176 10.416 24.64H288v48z m400 128v-96H352l2.272 96.448z m-272-32v-32h208v32H416z m-112 304h64V560h304v112c0 20.32-17.408 24.608-38.4 24.608q-30.4 0-57.184-2.336 7.04 26.24 12.192 54.832a652.32 652.32 0 0 0 90-3.856 53.12 53.12 0 0 0 35.2-22.16A87.408 87.408 0 0 0 736 672V512H304v240z m160-48v-16h160v-96H416v112h48z m0-48v-32h112v32h-112z"  /></svg>