<?xml version="1.0" standalone="no"?><!DOCTYPE svg PUBLIC "-//W3C//DTD SVG 1.1//EN" "http://www.w3.org/Graphics/SVG/1.1/DTD/svg11.dtd"><svg t="1629858931958" class="icon" viewBox="0 0 1024 1024" version="1.1" xmlns="http://www.w3.org/2000/svg" p-id="16899" xmlns:xlink="http://www.w3.org/1999/xlink" width="64" height="64"><defs><style type="text/css"></style></defs><path d="M378.3075447 538.73153878H271.34662819C212.51290989 538.73153878 164.38571167 586.8761177 164.38571167 645.6924553v106.96091651C164.38571167 811.48709011 212.5302906 859.61428833 271.34662819 859.61428833h106.96091651c58.81633759 0 106.96091652-48.14457893 106.96091652-106.96091652v-106.96091651c0-58.81633759-48.14457893-106.96091652-106.96091652-106.96091653z m53.48045827 213.92183303a53.63688469 53.63688469 0 0 1-53.48045827 53.48045827H271.34662819a53.63688469 53.63688469 0 0 1-53.48045827-53.48045827v-106.96091651a53.63688469 53.63688469 0 0 1 53.48045827-53.48045827h106.96091651a53.63688469 53.63688469 0 0 1 53.48045827 53.48045827v106.96091651zM752.65337181 164.38571167h-106.96091651c-58.81633759 0-106.96091652 48.14457893-106.96091652 106.96091652v106.96091651c0 58.81633759 48.14457893 106.96091652 106.96091652 106.96091653h106.96091651c58.8337183 0 106.96091652-48.14457893 106.96091652-106.96091653V271.34662819C859.61428833 212.51290989 811.4697094 164.38571167 752.65337181 164.38571167z m53.48045827 213.92183303a53.63688469 53.63688469 0 0 1-53.48045827 53.48045827h-106.96091651a53.63688469 53.63688469 0 0 1-53.48045827-53.48045827V271.34662819a53.63688469 53.63688469 0 0 1 53.48045827-53.48045827h106.96091651a53.63688469 53.63688469 0 0 1 53.48045827 53.48045827v106.96091651z m-53.48045827 160.42399408h-106.96091651c-58.81633759 0-106.96091652 48.14457893-106.96091652 106.96091652v106.96091651c0 58.8337183 48.14457893 106.96091652 106.96091652 106.96091652h106.96091651C811.48709011 859.61428833 859.61428833 811.4697094 859.61428833 752.65337181v-106.96091651c0-58.81633759-48.14457893-106.96091652-106.96091652-106.96091652z m53.48045827 213.92183303a53.63688469 53.63688469 0 0 1-53.48045827 53.48045827h-106.96091651a53.63688469 53.63688469 0 0 1-53.48045827-53.48045827v-106.96091651a53.63688469 53.63688469 0 0 1 53.48045827-53.48045827h106.96091651a53.63688469 53.63688469 0 0 1 53.48045827 53.48045827v106.96091651zM378.3075447 164.38571167H271.34662819C212.51290989 164.38571167 164.38571167 212.5302906 164.38571167 271.34662819v106.96091651c0 58.81633759 48.14457893 106.96091652 106.96091652 106.96091652h106.96091651c58.81633759 0 106.96091652-48.14457893 106.96091653-106.96091652V271.34662819c0-58.8337183-48.14457893-106.96091652-106.96091653-106.96091652z m53.48045827 213.92183303a53.63688469 53.63688469 0 0 1-53.48045827 53.48045827H271.34662819a53.63688469 53.63688469 0 0 1-53.48045827-53.48045827V271.34662819a53.63688469 53.63688469 0 0 1 53.48045827-53.48045827h106.96091651a53.63688469 53.63688469 0 0 1 53.48045827 53.48045827v106.96091651z" fill="#8a8a8a" p-id="16900"></path></svg>