<?xml version="1.0" standalone="no"?><!DOCTYPE svg PUBLIC "-//W3C//DTD SVG 1.1//EN" "http://www.w3.org/Graphics/SVG/1.1/DTD/svg11.dtd"><svg t="1629858537622" class="icon" viewBox="0 0 1024 1024" version="1.1" xmlns="http://www.w3.org/2000/svg" p-id="5883" xmlns:xlink="http://www.w3.org/1999/xlink" width="64" height="64"><defs><style type="text/css"></style></defs><path d="M856.7 387.8v410.8c0 69.8-57.2 127-127 127H293c-69.8 0-127-57.2-127-127V387.8l345.4-227.4 345.3 227.4z m0 0" fill="#FF534D" p-id="5884"></path><path d="M511.3 751.5c-74.2 0-134.6-60.4-134.6-134.6s60.4-134.6 134.6-134.6c74.2 0 134.6 60.4 134.6 134.6s-60.3 134.6-134.6 134.6z m0-195.3c-33.4 0-60.6 27.2-60.6 60.6 0 33.4 27.2 60.6 60.6 60.6 33.4 0 60.6-27.2 60.6-60.6 0.1-33.4-27.1-60.6-60.6-60.6z m0 0" fill="#FFFFFF" p-id="5885"></path><path d="M942.3 368.9l-411-264.5c-0.8-0.5-1.6-0.8-2.4-1.2-1.2-0.7-2.4-1.3-3.6-1.9-1.1-0.5-2.2-0.7-3.4-1.1-1.2-0.3-2.3-0.7-3.5-1-1.2-0.2-2.3-0.3-3.5-0.4-1.2-0.1-2.5-0.3-3.7-0.3-1 0-2.1 0.1-3.1 0.2-1.4 0.1-2.7 0.2-4.1 0.5-1 0.2-1.9 0.5-2.9 0.8-1.3 0.4-2.6 0.7-3.9 1.3-1.1 0.5-2.1 1.1-3.2 1.6-0.9 0.5-1.9 0.8-2.8 1.4l-411 264.5c-17.2 11.1-22.2 34-11.1 51.1 7.1 11 19 17 31.2 17 6.9 0 13.8-1.9 20-5.9l391-251.6L902.2 431c6 3.8 12.9 5.9 20 5.9 12.1 0 24.1-6 31.2-17 11.1-17 6.1-39.9-11.1-51z m0 0" fill="#FF534D" p-id="5886"></path></svg>