<?xml version="1.0" standalone="no"?><!DOCTYPE svg PUBLIC "-//W3C//DTD SVG 1.1//EN" "http://www.w3.org/Graphics/SVG/1.1/DTD/svg11.dtd"><svg t="1629859484202" class="icon" viewBox="0 0 1024 1024" version="1.1" xmlns="http://www.w3.org/2000/svg" p-id="26858" xmlns:xlink="http://www.w3.org/1999/xlink" width="64" height="64"><defs><style type="text/css"></style></defs><path d="M693.76 673.28c-33.28-15.36-71.68-25.6-117.76-30.72-7.68 0-12.8-2.56-17.92-7.68-5.12-5.12-7.68-10.24-7.68-17.92v-43.52-7.68c0-2.56 2.56-5.12 2.56-5.12 0-2.56 2.56-2.56 2.56-5.12l5.12-5.12c15.36-7.68 25.6-20.48 35.84-35.84 10.24-15.36 15.36-30.72 20.48-48.64 5.12-17.92 7.68-35.84 10.24-53.76 2.56-17.92 2.56-35.84 2.56-58.88 0-79.36-38.4-120.32-117.76-120.32h-5.12c-38.4 0-69.12 10.24-89.6 30.72-20.48 20.48-30.72 51.2-30.72 89.6v33.28c0 10.24 0 20.48 2.56 33.28 2.56 10.24 2.56 23.04 5.12 30.72 2.56 10.24 5.12 20.48 7.68 28.16 2.56 10.24 7.68 17.92 12.8 28.16 5.12 7.68 10.24 15.36 17.92 23.04 7.68 7.68 15.36 12.8 23.04 17.92 7.68 5.12 12.8 12.8 12.8 23.04V614.4c0 7.68-2.56 12.8-7.68 17.92-5.12 5.12-10.24 7.68-17.92 7.68-23.04 2.56-46.08 7.68-66.56 12.8s-38.4 12.8-53.76 17.92c-12.8 7.68-25.6 12.8-33.28 20.48-7.68 7.68-12.8 12.8-12.8 17.92 0 53.76 74.24 81.92 222.72 81.92 48.64 0 92.16-2.56 128-10.24 35.84-5.12 61.44-15.36 79.36-28.16 17.92-12.8 28.16-25.6 28.16-43.52 7.68-7.68-7.68-20.48-40.96-35.84zM512 0C230.4 0 0 230.4 0 512s230.4 512 512 512 512-230.4 512-512S793.6 0 512 0z m276.48 744.96c-2.56 10.24-7.68 20.48-15.36 30.72-7.68 10.24-17.92 20.48-33.28 28.16-15.36 7.68-33.28 15.36-53.76 23.04-20.48 7.68-46.08 12.8-76.8 15.36-30.72 2.56-66.56 5.12-104.96 5.12-184.32 0-276.48-43.52-276.48-133.12 0-20.48 10.24-38.4 28.16-56.32 17.92-17.92 40.96-30.72 69.12-40.96 28.16-10.24 58.88-17.92 92.16-23.04V588.8c-17.92-12.8-30.72-28.16-43.52-46.08-10.24-17.92-20.48-38.4-25.6-58.88-5.12-23.04-7.68-43.52-10.24-61.44-2.56-17.92-2.56-40.96-2.56-64 0-53.76 15.36-97.28 46.08-128 30.72-30.72 71.68-46.08 125.44-46.08h5.12c35.84 0 66.56 7.68 92.16 20.48s46.08 33.28 58.88 58.88c12.8 25.6 20.48 56.32 20.48 92.16 0 23.04 0 43.52-2.56 64-2.56 17.92-5.12 38.4-10.24 61.44-5.12 23.04-12.8 40.96-25.6 58.88-10.24 17.92-25.6 33.28-43.52 46.08v5.12c33.28 5.12 64 12.8 92.16 23.04s51.2 23.04 69.12 40.96c17.92 17.92 28.16 35.84 28.16 56.32 2.56 12.8 2.56 23.04-2.56 33.28z" fill="#FF534D" p-id="26859"></path></svg>