<?xml version="1.0" standalone="no"?><!DOCTYPE svg PUBLIC "-//W3C//DTD SVG 1.1//EN" "http://www.w3.org/Graphics/SVG/1.1/DTD/svg11.dtd"><svg t="1629827159508" class="icon" viewBox="0 0 1024 1024" version="1.1" xmlns="http://www.w3.org/2000/svg" p-id="5892" xmlns:xlink="http://www.w3.org/1999/xlink" width="32" height="32"><defs><style type="text/css"></style></defs><path d="M512 0a512 512 0 1 0 0 1024 512 512 0 0 0 0-1024z m280.395294 364.062118l-338.100706 338.100706c-1.084235 1.626353-1.807059 3.433412-3.252706 4.879058a33.069176 33.069176 0 0 1-24.395294 9.637647 33.008941 33.008941 0 0 1-24.335059-9.637647c-1.445647-1.445647-2.168471-3.252706-3.252705-4.818823l-167.454118-167.454118a33.310118 33.310118 0 1 1 47.164235-47.164235l147.937883 147.937882 318.644705-318.58447a33.370353 33.370353 0 0 1 47.104 47.164235h-0.060235z" fill="#d81e06" p-id="5893"></path></svg>