<?xml version="1.0" standalone="no"?><!DOCTYPE svg PUBLIC "-//W3C//DTD SVG 1.1//EN" "http://www.w3.org/Graphics/SVG/1.1/DTD/svg11.dtd"><svg t="1637402960153" class="icon" viewBox="0 0 1025 1024" version="1.1" xmlns="http://www.w3.org/2000/svg" p-id="1911" xmlns:xlink="http://www.w3.org/1999/xlink" width="32.03125" height="32"><defs><style type="text/css"></style></defs><path d="M907.19424336 750.36755586c-11.97073477 52.51028291-62.11704902 105.02056494-145.31868633 151.28393555-157.28942109-81.61224609-148.16550849-166.35297832-147.61223877-173.63601299 0-8.83218955 3.42021006-38.46730254 19.94787158-54.58252764 9.11385352-8.83218955 20.51120039-12.99679805 36.47553399-12.99679805 52.42980674 0 65.53725908 47.27937305 67.2373037 52.51028292 2.85688125 10.91449336 12.54412266 18.71056055 23.36808253 18.71055966 10.83401807-1.00594424 21.12482637-7.27297558 24.51485742-17.6744373 0.56332881-2.08230469 15.95427364-53.02331455 68.94741005-53.54640528 29.63511386 0 43.31595323 16.63831582 49.58298458 33.27663076 3.42021006 9.35528028 12.53406357 15.59213349 23.36808252 15.59213438h1.1367167c16.52766153 0 28.48833721-14.55601114 23.36808164-29.11202314-12.54412266-35.34887637-43.31595323-68.62550713-99.1659709-68.62550713-42.74256533 0.52309072-72.42797636 20.79286523-91.17877412 43.66803427-18.237767-23.39825977-47.87287998-43.66803427-91.75216289-43.66803427-29.0617251 0-52.99313555 9.35528028-71.24096162 27.55280917-33.61865185 33.27663164-34.20209971 84.21764151-34.20209971 85.7768546-0.56332881 5.20073086-18.22770703 126.32646182 186.36120615 227.18241826a27.52263105 27.52263105 0 0 0 10.82395811 2.60539541 22.05029531 22.05029531 0 0 0 11.39734688-3.11842705c104.85961435-55.10561836 166.98672247-120.08960859 181.79422031-190.79741953 2.84682217-14.03292041-9.12391347-27.02971846-24.50479835-27.02971846-10.82395898-1.00594424-21.12482637 6.23685322-23.36808164 16.62825586z m0 0" p-id="1912" fill="#ffffff"></path><path d="M761.885617 961.99807871a35.93232334 35.93232334 0 0 1-14.43529864-3.37997197c-196.51118203-96.81206133-193.39275586-212.08319737-190.78736045-234.19384893 0-1.77046172 0.42249638-54.7133001 36.34476152-90.26336513 19.85733721-19.81709912 45.8207543-29.87653974 77.10561563-29.87654063 45.15683115 0 74.26885342 19.84727724 91.91311348 39.17146377 18.10699365-19.00228447 47.27937305-38.64837305 90.91722919-39.17146377 72.91082901 0 99.03519756 51.52445771 106.891621 73.68540644a27.16049092 27.16049092 0 0 1-4.617283 26.45632969c-6.17649698 7.76588818-15.80338213 12.2222206-26.3758544 12.22222149-15.37082578 0-27.52263105-8.04755303-32.09967685-20.60173564-7.16232217-19.00228447-20.90351865-28.26702949-41.97804786-28.2670295-47.45038359 0.46273447-61.0306295 47.51074072-61.15134287 47.99359336-4.22496563 12.79560937-16.52766153 21.75857138-31.47599092 23.19707198h-0.09053525a32.54229229 32.54229229 0 0 1-31.90854727-24.2935506c-5.59304912-17.72473536-20.57155752-46.89711474-59.4412374-46.89711474-13.5500669 0-23.01600146 3.29949668-30.64105811 10.7032456-13.42935352 13.04709521-17.7448544 39.02057227-17.74485352 49.53268829-1.22725195 15.44124199 0 91.31960654 139.45403234 165.13578544 78.65477051-44.53314609 126.21580752-94.34749834 137.59303534-144.26244579 3.09830801-13.99268232 17.00045508-23.81069708 32.05943877-22.43255362h0.15089151a33.44764131 33.44764131 0 0 1 24.26337246 10.84407803 28.29720761 28.29720761 0 0 1 7.17238125 24.79652226c-15.38088575 73.26291006-77.85001494 139.13213028-185.69728301 195.79696172a29.75582724 29.75582724 0 0 1-15.42112295 4.10425226z m-91.77228194-343.10741836c-26.58710303 0-48.55692217 8.45999033-65.30589141 25.14860332-31.70735859 31.38545654-32.09967685 80.34475606-32.09967685 80.83766865-1.56927305 13.66072119-9.05349727 126.47735332 182.15635956 220.74437637 5.02972031 2.2734334 10.32098643 2.01188848 13.95244512-0.1508915 104.07497783-54.72336006 163.96889063-117.24278643 178.38406934-186.09966123a14.55601114 14.55601114 0 0 0-3.72199306-12.73525224 17.45313047 17.45313047 0 0 0-12.92638184-5.54275196c-7.28303555-0.61362598-14.01280136 4.02377607-15.51165821 10.76360186-12.49382549 54.83401348-64.0182832 108.79285606-148.98032314 156.05211005l-4.02377608 2.2331962-4.11431132-2.1225419c-148.10515137-76.85412979-153.5372499-157.36989727-151.70643194-180.2048291 0-10.37128359 3.96341982-41.69638388 22.13077061-59.35070215 10.79377998-10.46181885 24.24325342-15.32052862 42.33012802-15.32052862 36.07315576 0 63.30406289 20.83310244 74.7315879 57.16780401 2.29355244 8.55052471 8.83218955 14.08321758 15.87379834 14.08321758 7.66529385-0.77457656 14.59624922-5.69364346 16.82944541-12.47370732 0.06035625-0.2313668 16.47736435-58.16368828 76.54228681-58.7571961 28.0758999 0 47.83264278 13.21810576 57.24828018 38.22587666a16.47736435 16.47736435 0 0 0 15.79332217 10.65294844c6.51851807 0 11.39734688-2.25331523 14.55601113-6.19661601a13.7311374 13.7311374 0 0 0 2.29355245-13.35893819c-6.75994482-19.11293789-29.23273565-63.53543057-91.54091427-63.53542969-42.77274346 0.51303164-69.71192666 22.44261357-84.7507913 40.74073682l-6.57887432 8.04755215-6.36762656-8.15820645c-14.41517871-18.62002529-40.91174737-40.69043964-85.19340674-40.69043964zM761.87555703 338.63463125c0-148.67854013-121.95060469-269.29123857-271.83627773-269.29123945s-271.83627773 120.61269932-271.83627686 269.29123945c0 105.01050586 60.98033232 195.98809131 149.31228428 240.17921631C204.53222128 630.80103887 70.04755303 777.40733427 70.04755303 926.60896513a24.50479834 24.50479834 0 0 0 49.00959755 0c0-158.04387949 186.92453497-318.68309443 370.99218867-318.68309531 149.88567305 0.52309072 271.83627773-120.61269932 271.83627774-269.29123857zM490.0392793 559.01686748c-122.52399258 0-222.25329229-98.77365263-222.25329141-220.42247432S367.51528672 118.21215693 490.0392793 118.21215693s222.25329229 98.78371172 222.25329228 220.42247432S612.56327276 559.01686748 490.0392793 559.01686748z m0 0" p-id="1913" fill="#ffffff"></path><path d="M94.5322332 958.37667998c-17.94604307 0-32.53223232-14.26428721-32.5322332-31.76771485 0-142.57245937 122.25238769-290.13440098 286.91538047-349.29397441-85.98810234-49.48239112-138.71969297-139.48421045-138.71969385-238.68035947 0-152.53130566 125.54182529-276.63463125 279.84359268-276.63463125s279.86371172 124.07314658 279.86371172 276.63463125c0 77.23638896-33.03520489 151.56559951-90.66574248 203.92499003a279.2299667 279.2299667 0 0 1-188.26244122 72.68952218h-0.95564618c-179.76221279 0-362.94463565 157.13852959-362.94463653 311.35982167 0 17.50342763-14.6063083 31.76771484-32.54229141 31.76771485zM490.0392793 76.65660547c-145.46957783 0-263.80884375 117.51439131-263.80884287 261.97802578 0 99.40739677 55.61865 188.97666065 145.13761669 233.77135166l15.79332217 7.89666152-17.00045508 5.42203857C203.63693135 638.8485919 78.09510605 785.35429209 78.09510605 926.60896513c0 9.43575557 7.39368896 17.10105029 16.47736436 17.10104942s16.4974834-7.67535381 16.4974834-17.10104942c0-161.47414864 191.27021396-325.99630898 379.00956358-325.99630898h0.91540897a262.81295859 262.81295859 0 0 0 262.87331573-261.9780249c0-144.46363359-118.35938408-261.9780249-263.82896279-261.97802578z m0 489.72377285c-126.980325 0-230.28072627-102.17374365-230.28072627-227.74574707S363.0589543 110.89894326 490.0392793 110.89894326s230.28072627 102.15362461 230.28072627 227.73568799-103.30040127 227.74574707-230.28072627 227.74574707z m0-440.85500772c-118.12801729 0-214.26609638 95.56469033-214.26609552 213.10926065s96.11796006 213.10926065 214.26609552 213.10925977 214.26609638-95.56469033 214.26609638-213.10925977-96.13807911-213.10926065-214.26609638-213.10926065z" p-id="1914" fill="#ffffff"></path></svg>