<?xml version="1.0" standalone="no"?><!DOCTYPE svg PUBLIC "-//W3C//DTD SVG 1.1//EN" "http://www.w3.org/Graphics/SVG/1.1/DTD/svg11.dtd"><svg t="1637328812291" class="icon" viewBox="0 0 1024 1024" version="1.1" xmlns="http://www.w3.org/2000/svg" p-id="9790" xmlns:xlink="http://www.w3.org/1999/xlink" width="32" height="32"><defs><style type="text/css"></style></defs><path d="M947.52 373.92L609.6 113.92c-57.44-44.16-137.6-44.16-195.04 0L76.48 373.92c-14.08 10.72-16.64 30.88-5.92 44.8 10.72 14.08 30.88 16.64 44.8 5.92l12.64-9.6v432.32c0 52.96 43.04 96 96 96h128c52.96 0 96-43.04 96-96v-192h128v192c0 52.96 43.04 96 96 96h128c52.96 0 96-43.04 96-96V415.04l12.48 9.6c5.76 4.48 12.64 6.72 19.52 6.72 9.6 0 19.04-4.32 25.44-12.48 10.72-14.08 8-34.24-5.92-44.96zM832 367.2v480c0 17.6-14.4 32-32 32h-128c-17.6 0-32-14.4-32-32v-192c0-35.36-28.64-64-64-64h-128c-35.36 0-64 28.64-64 64v192c0 17.6-14.4 32-32 32h-128c-17.6 0-32-14.4-32-32v-480c0-0.48-0.16-0.96-0.16-1.44l261.6-201.28a96.032 96.032 0 0 1 117.12 0l261.6 201.28c0 0.64-0.16 0.96-0.16 1.44z" p-id="9791" fill="#ffffff"></path></svg>