<?xml version="1.0" standalone="no"?><!DOCTYPE svg PUBLIC "-//W3C//DTD SVG 1.1//EN" "http://www.w3.org/Graphics/SVG/1.1/DTD/svg11.dtd"><svg t="1637328964010" class="icon" viewBox="0 0 1024 1024" version="1.1" xmlns="http://www.w3.org/2000/svg" p-id="13330" xmlns:xlink="http://www.w3.org/1999/xlink" width="32" height="32"><defs><style type="text/css"></style></defs><path d="M404.504 432.047c4.145 25.416 12.125 50.65 24.483 74.796 13.472 26.322 31.089 49.121 51.427 68.371 27.462 26.011 60.003 45.442 95.211 57.023 62.075 20.389 131.871 16.944 194.568-15.027C894.836 553.4 944.294 400.647 880.587 275.927 826.232 169.782 707.6 118.485 596.507 144.859c-19.431 4.586-38.603 11.27-57.153 20.752-25.571 13.083-47.748 30.001-66.661 49.536-38.68 39.95-62.904 91.17-69.614 145.317C400.152 384.04 400.618 408.134 404.504 432.047zM654.774 199.369c106.144 0 192.133 86.014 192.133 192.133 0 106.093-85.988 192.107-192.133 192.107-106.118 0-192.107-85.988-192.107-192.107C462.667 285.409 548.656 199.369 654.774 199.369z" p-id="13331" fill="#ffffff"></path><path d="M659.127 778.098 508.084 778.098c0 0 0 0 0 0.052l-9.43 0-81.765 0L130.158 778.15c-19.042 0-34.457 15.337-34.457 34.354l0 6.373c0 19.016 15.415 34.483 34.457 34.483l248.024 0 129.669 0 0 0.026 151.25 0c19.016 0 34.457-15.389 34.457-34.406l0-6.477C693.584 793.514 678.143 778.098 659.127 778.098z" p-id="13332" fill="#ffffff"></path><path d="M799.573 662.005c-6.477-16.97-25.804-25.623-43.162-19.224l-8.135 3.005c-17.462 6.166-26.322 25.079-19.794 41.893l58.707 153.504c6.503 16.918 25.752 25.519 43.111 19.198l8.187-3.005c17.462-6.166 26.322-25.131 19.794-41.971L799.573 662.005z" p-id="13333" fill="#ffffff"></path><path d="M130.158 233.438l241.34 0c15.597-27.903 35.209-53.189 58.034-75.236l-12.617 0L130.158 158.202c-19.042 0-34.457 15.337-34.457 34.354l0 6.399C95.7 217.971 111.115 233.438 130.158 233.438z" p-id="13334" fill="#ffffff"></path><path d="M130.158 652.834l332.613 0c-0.012-0.008-0.025-0.017-0.037-0.026l0.218 0c-28.473-20.934-53.448-46.271-73.76-75.211l-3.964 0L130.158 577.597c-19.042 0-34.457 15.337-34.457 34.354l0 6.373C95.7 637.367 111.115 652.834 130.158 652.834z" p-id="13335" fill="#ffffff"></path><path d="M132.645 371.268c-20.415 0-36.919 16.555-36.919 36.893l0 6.943c0 20.389 16.529 36.893 36.919 36.893l203.489 0c-3.705-19.638-5.855-39.82-5.855-60.521 0-6.814 0.596-13.472 1.036-20.208L132.645 371.268z" p-id="13336" fill="#ffffff"></path></svg>