<?xml version="1.0" standalone="no"?><!DOCTYPE svg PUBLIC "-//W3C//DTD SVG 1.1//EN" "http://www.w3.org/Graphics/SVG/1.1/DTD/svg11.dtd"><svg t="1635596200053" class="icon" viewBox="0 0 1024 1024" version="1.1" xmlns="http://www.w3.org/2000/svg" p-id="2441" width="128" height="128" xmlns:xlink="http://www.w3.org/1999/xlink"><defs><style type="text/css"></style></defs><path d="M71.68 102.4m81.92 0l716.8 0q81.92 0 81.92 81.92l0 686.08q0 81.92-81.92 81.92l-716.8 0q-81.92 0-81.92-81.92l0-686.08q0-81.92 81.92-81.92Z" fill="#FF7A45" p-id="2442"></path><path d="M87.04 409.6A87.04 87.04 0 0 1 0 322.56V204.8h1024v117.76a87.04 87.04 0 1 1-174.08 0 87.04 87.04 0 1 1-174.08 0 87.04 87.04 0 0 1-163.84 40.99072A87.04 87.04 0 0 1 348.16 322.56a87.04 87.04 0 1 1-174.08 0A87.04 87.04 0 0 1 87.04 409.6z" fill="#CF5A1A" p-id="2443"></path><path d="M849.92 61.44h92.16a81.92 81.92 0 0 1 81.92 81.92v128a87.04 87.04 0 1 1-174.08 0V61.44z" fill="#FFBB96" p-id="2444"></path><path d="M675.84 61.44h174.08v209.92a87.04 87.04 0 1 1-174.08 0V61.44z" fill="#FF7A45" p-id="2445"></path><path d="M501.76 61.44h174.08v209.92a87.04 87.04 0 1 1-174.08 0V61.44z" fill="#FFBB96" p-id="2446"></path><path d="M348.16 61.44h174.08v209.92a87.04 87.04 0 1 1-174.08 0V61.44z" fill="#FF7A45" p-id="2447"></path><path d="M174.08 61.44h174.08v209.92a87.04 87.04 0 1 1-174.08 0V61.44z" fill="#FFBB96" p-id="2448"></path><path d="M81.92 61.44h92.16v209.92a87.04 87.04 0 1 1-174.08 0V143.36a81.92 81.92 0 0 1 81.92-81.92z" fill="#FF7A45" p-id="2449"></path><path d="M256 573.44h296.96v204.8H256z" fill="#FFBB96" p-id="2450"></path><path d="M225.28 778.24m30.72 0l296.96 0q30.72 0 30.72 30.72l0 0q0 30.72-30.72 30.72l-296.96 0q-30.72 0-30.72-30.72l0 0q0-30.72 30.72-30.72Z" fill="#CF5A1A" p-id="2451"></path><path d="M225.28 512m30.72 0l296.96 0q30.72 0 30.72 30.72l0 0q0 30.72-30.72 30.72l-296.96 0q-30.72 0-30.72-30.72l0 0q0-30.72 30.72-30.72Z" fill="#CF5A1A" p-id="2452"></path></svg>