<?xml version="1.0" standalone="no"?><!DOCTYPE svg PUBLIC "-//W3C//DTD SVG 1.1//EN" "http://www.w3.org/Graphics/SVG/1.1/DTD/svg11.dtd"><svg t="1638176876702" class="icon" viewBox="0 0 1024 1024" version="1.1" xmlns="http://www.w3.org/2000/svg" p-id="6737" xmlns:xlink="http://www.w3.org/1999/xlink" width="64" height="64"><defs><style type="text/css"></style></defs><path d="M883.6 772V517.5c0-54.1-15.2-106.1-43.8-151.4l24-23.9c13.2-13.1 20.4-30.5 20.4-49.1 0-18.5-7.3-36-20.4-49-13.2-13.1-30.6-20.3-49.2-20.4-18.6 0-36.1 7.2-49.2 20.3l-25.9 25.9c-43.1-24.6-92.2-37.7-142.2-37.7H426.9c-53.8 0-103.9 15.1-147 40.9l-29.1-29c-13.2-13.1-30.6-20.3-49.2-20.3s-36.1 7.2-49.2 20.4c-13.1 13.1-20.4 30.5-20.4 49 0 18.6 7.2 36 20.4 49.1l29.1 29c-25.9 42.9-41 92.8-41 146.4V772H63v30.8h898V772h-77.4z m-96.5-506.2c7.3-7.3 17-11.3 27.3-11.3s20 4 27.4 11.3c7.3 7.3 11.3 17 11.3 27.3s-4 20-11.3 27.3l-20.4 20.4c-16.1-20.2-34.7-38.4-55.6-53.6l21.3-21.4z m-612.9 54.5c-7.3-7.3-11.3-17-11.3-27.3s4-20 11.3-27.3c7.3-7.3 17-11.3 27.4-11.3 10.3 0 20 4 27.3 11.3l24.9 24.8c-20.6 15.7-39 34-54.7 54.5l-24.9-24.7zM852.6 772H171.4V517.5C171.4 377.2 286 263 426.9 263H597c45.7 0 90.5 12.1 129.6 35.1 31.4 18.5 59.1 44 80 73.8 30 42.8 45.9 93.2 45.9 145.6V772zM713.3 463.5h-92.9c-8.5 0-15.5 6.9-15.5 15.4s6.9 15.4 15.5 15.4h92.9c8.5 0 15.5-6.9 15.5-15.4-0.1-8.5-7-15.4-15.5-15.4z m0 46.3h-92.9c-8.5 0-15.5 6.9-15.5 15.4s6.9 15.4 15.5 15.4h92.9c8.5 0 15.5-6.9 15.5-15.4-0.1-8.5-7-15.4-15.5-15.4z m-402.6-15.4h92.9c8.5 0 15.5-6.9 15.5-15.4s-6.9-15.4-15.5-15.4h-92.9c-8.5 0-15.5 6.9-15.5 15.4 0.1 8.4 7 15.4 15.5 15.4z m108.4 30.8c0-8.5-6.9-15.4-15.5-15.4h-92.9c-8.5 0-15.5 6.9-15.5 15.4s6.9 15.4 15.5 15.4h92.9c8.6 0 15.5-6.9 15.5-15.4z m-46.4 154.3h278.7v-30.9H372.7v30.9z" fill="#707070" p-id="6738"></path></svg>