<?xml version="1.0" standalone="no"?><!DOCTYPE svg PUBLIC "-//W3C//DTD SVG 1.1//EN" "http://www.w3.org/Graphics/SVG/1.1/DTD/svg11.dtd"><svg t="1630682263700" class="icon" viewBox="0 0 1024 1024" version="1.1" xmlns="http://www.w3.org/2000/svg" p-id="3755" xmlns:xlink="http://www.w3.org/1999/xlink" width="32" height="32"><defs><style type="text/css"></style></defs><path d="M845.45 512c0-34.94707031 21.22207031-65.67275391 54.05888672-78.27714844l16.81171875-6.45292968-4.44638672-17.44628907a410.30068359 410.30068359 0 0 0-44.81982422-108.29794922l-9.18896484-15.47929687-16.44785156 7.3125a84.31611328 84.31611328 0 0 1-34.46982422 7.31689453 82.90371094 82.90371094 0 0 1-59.09765625-24.525c-24.71484375-24.71484375-31.43759766-61.43466797-17.12285157-93.54638672l7.34414063-16.47949219-15.525-9.18808593a412.51992188 412.51992188 0 0 0-108.36035156-44.81103516l-17.41464844-4.43759766-6.47138672 16.76689453c-12.68525391 32.8640625-43.42060547 54.09931641-78.29121094 54.09931641-34.94267578 0-65.66835937-21.22207031-78.27714844-54.06767578l-6.45292968-16.80292969-17.44628906 4.44199219a410.08535156 410.08535156 0 0 0-108.29707032 44.82421875l-15.48017578 9.18896484 7.3125 16.44785157c14.29628906 32.13896484 7.57353516 68.86757812-17.11845703 93.56396484-15.77197266 15.77636719-36.79628906 24.46611328-59.19257812 24.46611328-11.94345703 0-23.51689453-2.44335938-34.39335938-7.26767578l-16.40742187-7.27646484-9.19335938 15.42216796a407.93378906 407.93378906 0 0 0-44.92353516 108.32783204l-4.43232421 17.41552734 16.76689453 6.47050781c32.85 12.68613281 54.08085938 43.41621094 54.08085937 78.29121094 0 34.94267578-21.22207031 65.66835937-54.06767578 78.28242188l-16.80732422 6.45732421 4.44199219 17.44628907a410.44482422 410.44482422 0 0 0 44.81982422 108.29267578l9.18896484 15.48457031 16.4522461-7.32128906a84.26689453 84.26689453 0 0 1 34.46542968-7.31777344c22.33300781 0 43.3125 8.70292969 59.09326172 24.52148438 24.71923828 24.71748047 31.43759766 61.43818359 17.1272461 93.54990234l-7.34414063 16.47949219 15.525 9.18808593a412.23164063 412.23164063 0 0 0 108.36035156 44.80664063l17.41464844 4.43759766 6.47138672-16.76777344c12.69931641-32.85878906 43.42939453-54.08964844 78.30439453-54.08964844 34.94707031 0 65.67275391 21.22207031 78.28242188 54.06328125l6.45732421 16.80732422 17.44628907-4.44638672a410.60214844 410.60214844 0 0 0 108.29707031-44.81542969l15.48457031-9.19335937-7.32128906-16.4522461c-14.29716797-32.13896484-7.58320312-68.86318359 17.11757812-93.56396484 15.77285156-15.77636719 36.79189453-24.46611328 59.18378907-24.46611328 11.94345703 0 23.52216797 2.44775391 34.39863281 7.26767578l16.4109375 7.28085938 9.18896484-15.4265625a408.0375 408.0375 0 0 0 44.92353516-108.3234375l4.43759766-17.44628907-16.8038086-6.45820312c-32.84033203-12.60351563-54.05361328-43.33447266-54.05361328-78.27714844z m-5.14775391 175.37871094a124.81611328 124.81611328 0 0 0-33.35449218-4.49560547c-33.21914063 0-64.40800781 12.90146484-87.83085938 36.32871094-32.22070313 32.22949219-43.83896484 78.20068359-31.78300781 121.17568359a370.51611328 370.51611328 0 0 1-67.13964844 27.78222656c-21.86191406-38.92412109-62.60009766-63.21972656-108.19423828-63.21972656-45.51328125 0-86.24707031 24.3-108.16699219 63.225a371.37568359 371.37568359 0 0 1-67.28818359-27.82792969c11.70439453-42.64189453-0.05800781-89.44189453-31.73818359-121.11767578-23.4140625-23.47558594-54.5765625-36.40429688-87.75000001-36.40429687-11.40820313 0-22.59492188 1.51611328-33.43095703 4.52636718a370.03974609 370.03974609 0 0 1-27.79628906-67.15722656c38.925-21.86191406 63.225-62.60009766 63.225-108.19423828 0-45.51767578-24.3-86.25146484-63.225-108.16699219a367.30371094 367.30371094 0 0 1 27.86396485-67.20732422c10.80439453 2.98828125 21.96914063 4.49560547 33.35449218 4.49560547 33.21386719 0 64.40800781-12.90146484 87.83085938-36.32871093 32.22421875-32.22861328 43.84775391-78.19628906 31.79267578-121.17480469a369.70224609 369.70224609 0 0 1 67.1352539-27.78398438c21.86103516 38.925 62.59921875 63.225 108.18896485 63.225 45.51767578 0 86.24707031-24.29560547 108.16699219-63.22851562a371.71757812 371.71757812 0 0 1 67.28818359 27.83144531c-11.70966797 42.6375 0.05800781 89.4375 31.73378906 121.11767578 23.41757813 23.47646484 54.58535156 36.40429688 87.75439453 36.40429688a124.60517578 124.60517578 0 0 0 33.43535157-4.52636719 370.32275391 370.32275391 0 0 1 27.79101562 67.15810547c-38.92412109 21.85224609-63.21445312 62.58691406-63.21445312 108.18457031 0 45.59414063 24.29121094 86.33232422 63.21621093 108.19335938a367.93388672 367.93388672 0 0 1-27.86396484 67.18535156z" fill="#777777" p-id="3756"></path><path d="M512 387.35439453c-68.72871094 0-124.64560547 55.91689453-124.64560547 124.64560547 0 68.73310547 55.91689453 124.65 124.64560547 124.65 68.73310547 0 124.65-55.91689453 124.65-124.65 0-68.72871094-55.91689453-124.64560547-124.65-124.64560547z m0 208.79560547c-46.39921875 0-84.14560547-37.75078125-84.14560547-84.15s37.75078125-84.14560547 84.14560547-84.14560547c46.40361328 0 84.15 37.75078125 84.15 84.14560547 0 46.40361328-37.74638672 84.15-84.15 84.15z" fill="#777777" p-id="3757"></path></svg>