<?xml version="1.0" standalone="no"?><!DOCTYPE svg PUBLIC "-//W3C//DTD SVG 1.1//EN" "http://www.w3.org/Graphics/SVG/1.1/DTD/svg11.dtd"><svg t="1639551973226" class="icon" viewBox="0 0 1024 1024" version="1.1" xmlns="http://www.w3.org/2000/svg" p-id="18308" xmlns:xlink="http://www.w3.org/1999/xlink" width="32" height="32"><defs><style type="text/css"></style></defs><path d="M512 1024C229.229714 1024 0 794.770286 0 512S229.229714 0 512 0s512 229.229714 512 512-229.229714 512-512 512z m49.883429-513.828571l155.172571-155.172572a36.571429 36.571429 0 0 0-51.748571-51.712l-155.136 155.172572-155.172572-155.172572a36.571429 36.571429 0 0 0-51.712 51.712l155.172572 155.172572-155.172572 155.136a36.571429 36.571429 0 1 0 51.712 51.748571l155.172572-155.172571 155.136 155.172571a36.571429 36.571429 0 1 0 51.748571-51.748571l-155.172571-155.136z" p-id="18309" fill="#ffffff"></path></svg>