<?xml version="1.0" standalone="no"?><!DOCTYPE svg PUBLIC "-//W3C//DTD SVG 1.1//EN" "http://www.w3.org/Graphics/SVG/1.1/DTD/svg11.dtd"><svg t="1639551822149" class="icon" viewBox="0 0 1024 1024" version="1.1" xmlns="http://www.w3.org/2000/svg" p-id="11035" xmlns:xlink="http://www.w3.org/1999/xlink" width="32" height="32"><defs><style type="text/css"></style></defs><path d="M898.99 814.89c0 9.83-1.98 21.65-5.9 29.51-3.94 9.83-9.83 17.7-15.75 25.56-5.9 7.87-15.73 11.81-23.6 15.75a79.257 79.257 0 0 1-29.51 5.9H206.59c-9.83 0-21.65-1.98-31.49-5.9-9.82-3.94-17.68-9.86-25.56-15.75-7.87-7.87-13.76-15.73-17.7-25.56a79.257 79.257 0 0 1-5.9-29.51V388.05c0-21.65 7.87-39.35 21.65-55.08 15.73-15.73 33.44-21.65 55.06-21.65H822.3c21.63 0 39.33 7.87 55.06 21.65 15.75 15.73 21.65 33.44 21.65 55.08V504.1h-192.8c-21.63 0-39.33 7.87-55.06 21.63-15.75 15.75-21.65 33.46-21.65 55.08 0 15.75 3.94 27.54 9.83 39.35 3.94 9.83 11.81 17.7 21.63 25.56 9.83 7.87 25.59 11.81 45.24 11.81h192.79v157.36z m-116.06-542.9H397.39c31.46-15.75 59-31.49 86.54-45.24 23.61-11.81 47.22-25.59 70.81-37.37 23.61-13.78 41.32-23.61 55.08-29.51 19.68-9.83 37.37-15.73 53.1-15.73 15.75 0 29.51 3.94 39.35 7.87 11.81 5.9 23.6 13.76 31.46 25.56l49.2 94.42zM668.85 580.81c0-9.83 3.93-19.68 11.79-27.54s15.75-11.79 27.54-11.79c9.83 0 19.68 3.93 27.54 11.79s11.81 15.75 11.81 27.54a38.87 38.87 0 0 1-11.81 27.54c-7.87 7.87-15.73 11.81-27.54 11.81a38.87 38.87 0 0 1-27.54-11.81c-9.84-5.89-11.79-15.73-11.79-27.54z" p-id="11036" fill="#ffffff"></path></svg>