<?xml version="1.0" standalone="no"?><!DOCTYPE svg PUBLIC "-//W3C//DTD SVG 1.1//EN" "http://www.w3.org/Graphics/SVG/1.1/DTD/svg11.dtd"><svg t="1639551874788" class="icon" viewBox="0 0 1024 1024" version="1.1" xmlns="http://www.w3.org/2000/svg" p-id="13488" xmlns:xlink="http://www.w3.org/1999/xlink" width="32" height="32"><defs><style type="text/css"></style></defs><path d="M511.999488 94.683453c230.108818 0 417.317571 187.207729 417.317571 417.317571 0 230.108818-187.207729 417.317571-417.317571 417.317571-230.109842 0-417.317571-187.207729-417.317571-417.317571C94.681918 281.890158 281.889647 94.683453 511.999488 94.683453M511.999488 66.861804c-245.445108 0-445.138196 199.693088-445.138196 445.138196s199.693088 445.138196 445.138196 445.138196 445.138196-199.693088 445.138196-445.138196S757.444597 66.861804 511.999488 66.861804L511.999488 66.861804z" p-id="13489" fill="#ffffff"></path><path d="M761.628896 426.743244l-54.066383-123.944893c-2.227738-5.053086-7.227612-8.31334-12.769838-8.31334L328.500221 294.485011c-5.542226 0-10.5421 3.260254-12.769838 8.31334l-55.642275 127.531582c-0.597611 1.467421-0.597611 3.043313-0.706081 4.564969-0.055259 0.379647-0.434905 0.597611-0.434905 0.977257l0 279.733029c0 7.715729 6.248308 13.910824 13.910824 13.910824l477.578026 0c7.661494 0 13.910824-6.195096 13.910824-13.910824L764.346797 437.556521c0.10847-0.597611 0.706081-1.032516 0.706081-1.684362C765.052878 432.393941 763.748163 429.243181 761.628896 426.743244zM337.628112 322.305637l348.035648 0 43.524283 99.655697L294.102806 421.961334 337.628112 322.305637zM286.767747 701.694363 286.767747 449.78196l449.7574 0 0 85.908602L625.132128 535.690562c-7.661494 0-13.910824 6.248308-13.910824 13.910824s6.248308 13.910824 13.910824 13.910824l111.39302 0 0 27.821649L535.039227 591.33386c-7.661494 0-13.910824 6.248308-13.910824 13.910824S527.376711 619.154485 535.039227 619.154485l201.485921 0 0 82.539878L286.767747 701.694363z" p-id="13490" fill="#ffffff"></path><path d="M419.40665 502.653121c-7.280824 0-13.20372 5.922896-13.20372 13.096273l0 76.073606-70.694085 0c-7.227612 0-13.150508 5.867638-13.150508 13.150508 0 7.226588 5.922896 13.149485 13.150508 13.149485l97.048313 0L432.557158 515.749394C432.557158 508.576017 426.634262 502.653121 419.40665 502.653121z" p-id="13491" fill="#ffffff"></path></svg>