<?xml version="1.0" standalone="no"?><!DOCTYPE svg PUBLIC "-//W3C//DTD SVG 1.1//EN" "http://www.w3.org/Graphics/SVG/1.1/DTD/svg11.dtd"><svg t="1638356250518" class="icon" viewBox="0 0 1024 1024" version="1.1" xmlns="http://www.w3.org/2000/svg" p-id="36614" xmlns:xlink="http://www.w3.org/1999/xlink" width="64" height="64"><defs><style type="text/css"></style></defs><path d="M401.8176 702.498133a300.680533 300.680533 0 0 1 300.680533-300.680533 295.765333 295.765333 0 0 1 79.172267 10.683733V148.599467A63.402667 63.402667 0 0 0 718.404267 85.333333H148.599467A63.488 63.488 0 0 0 85.333333 148.599467v664.661333a63.402667 63.402667 0 0 0 63.266134 63.266133H457.386667a298.564267 298.564267 0 0 1-55.552-174.08z m-158.242133-490.496H623.445333a31.6928 31.6928 0 1 1 0 63.3856H243.575467a31.726933 31.726933 0 0 1-22.442667-54.135466 30.72 30.72 0 0 1 22.442667-9.2672z m0 189.815467h126.6688a31.6928 31.6928 0 1 1 0 63.3856h-126.6688a31.6928 31.6928 0 0 1 0-63.3856z m63.266133 253.201067h-63.266133a31.6928 31.6928 0 1 1 0-63.3856h63.266133a31.726933 31.726933 0 0 1 22.442667 54.135466 31.214933 31.214933 0 0 1-22.442667 9.2672z m395.537067-189.934934a237.533867 237.533867 0 1 0 237.550933 237.533867 237.550933 237.550933 0 0 0-237.550933-237.533867z m104.874666 310.784a22.237867 22.237867 0 1 1-31.3344 31.573334l-73.386666-73.386667-73.386667 73.386667a22.237867 22.237867 0 0 1-31.3344-31.573334l73.386667-73.386666-73.386667-73.386667a22.3232 22.3232 0 0 1 31.573333-31.573333l73.386667 73.386666 73.386667-73.386666a22.3232 22.3232 0 0 1 31.573333 31.573333l-73.386667 73.386667z m0 0" fill="#FB8600" p-id="36615"></path></svg>