<?xml version="1.0" standalone="no"?><!DOCTYPE svg PUBLIC "-//W3C//DTD SVG 1.1//EN" "http://www.w3.org/Graphics/SVG/1.1/DTD/svg11.dtd"><svg t="1637509108737" class="icon" viewBox="0 0 1024 1024" version="1.1" xmlns="http://www.w3.org/2000/svg" p-id="15947" xmlns:xlink="http://www.w3.org/1999/xlink" width="32" height="32"><defs><style type="text/css"></style></defs><path d="M517.028 128a96 96 0 0 1 67.826 28.062l154.972 154.715a96 96 0 0 1 28.07 63.453l0.104 4.486 0.003 167.73A209.595 209.595 0 0 0 736 544c-10.883 0-21.57 0.836-32.002 2.447L704 378.716l-0.124-2.817a32 32 0 0 0-9.267-19.83L539.637 201.354A32 32 0 0 0 517.028 192H192c-17.673 0-32 14.327-32 32v608c0 17.673 14.327 32 32 32l368.7 0.002a209.101 209.101 0 0 0 64.407 64.004L192 928c-53.02 0-96-42.98-96-96V224C96 170.98 138.98 128 192 128h325.028z" fill="#353347" p-id="15948"></path><path d="M160 368h224c17.673 0 32 14.327 32 32 0 17.673-14.327 32-32 32H160v-64z" fill="#353347" p-id="15949"></path><path d="M288 480m32 0l192 0q32 0 32 32l0 0q0 32-32 32l-192 0q-32 0-32-32l0 0q0-32 32-32Z" fill="#353347" p-id="15950"></path><path d="M736 336H608c-17.673 0-32-14.327-32-32V176h-64v128c0 53.02 42.98 96 96 96h128v-64zM736 992c132.548 0 240-107.452 240-240S868.548 512 736 512 496 619.452 496 752s107.452 240 240 240z m0-64c-97.202 0-176-78.798-176-176s78.798-176 176-176 176 78.798 176 176-78.798 176-176 176z" fill="#353347" p-id="15951"></path><path d="M840.167 680.402c-12.497-12.497-32.759-12.497-45.255 0l-67.883 67.882-33.94-33.94c-12.497-12.498-32.759-12.498-45.256 0-12.496 12.496-12.496 32.757 0 45.254l56.569 56.569c12.497 12.496 32.758 12.496 45.255 0l90.51-90.51c12.496-12.497 12.496-32.758 0-45.255z" fill="#FF531A" p-id="15952"></path></svg>