<?xml version="1.0" standalone="no"?><!DOCTYPE svg PUBLIC "-//W3C//DTD SVG 1.1//EN" "http://www.w3.org/Graphics/SVG/1.1/DTD/svg11.dtd"><svg t="1637509168769" class="icon" viewBox="0 0 1024 1024" version="1.1" xmlns="http://www.w3.org/2000/svg" p-id="18110" xmlns:xlink="http://www.w3.org/1999/xlink" width="32" height="32"><defs><style type="text/css"></style></defs><path d="M585.91 896.005L416 896c-17.673 0-32-14.327-32-32 0-17.673 14.327-32 32-32l127.943 0.003c9.977 23.924 24.294 45.586 41.968 64.002zM735.726 160c42.862 0 80.53 28.414 92.306 69.627L880 411.518l0.005 190.393c-18.416-17.674-40.078-31.991-64.002-41.968L816 420.482l-49.507-173.273C762.568 233.47 750.013 224 735.725 224h-479.45c-14.287 0-26.843 9.471-30.768 23.209L176 420.482V800c0 17.673 14.327 32 32 32l2.388 0.088C226.946 833.309 240 847.13 240 864c0 17.673-14.327 32-32 32-53.02 0-96-42.98-96-96V411.518l51.969-181.891C175.744 188.414 213.413 160 256.275 160z" fill="#353347" p-id="18111"></path><path d="M736 992c132.548 0 240-107.452 240-240S868.548 512 736 512 496 619.452 496 752s107.452 240 240 240z m0-64c-97.202 0-176-78.798-176-176s78.798-176 176-176 176 78.798 176 176-78.798 176-176 176z" fill="#353347" p-id="18112"></path><path d="M736 624c17.673 0 32 14.327 32 32v96h32c17.673 0 32 14.327 32 32 0 17.673-14.327 32-32 32h-64c-17.673 0-32-14.327-32-32V656c0-17.673 14.327-32 32-32z" fill="#FF531A" p-id="18113"></path><path d="M144 384v64h704v-64z" fill="#353347" p-id="18114"></path></svg>